<?xml version="1.0" encoding="UTF-8"?>
<svg id="Layer_1" data-name="Layer 1" xmlns="http://www.w3.org/2000/svg" viewBox="0 0 361.67 100">
  <defs>
    <style>
      .cls-1 {
        fill: #0100ff;
      }

      .cls-2 {
        fill: #fff;
      }

      .cls-3 {
        fill: red;
      }

      .cls-4 {
        fill: #3f56ff;
      }
    </style>
  </defs>
  <path class="cls-2" d="m361.53,33.83c0-1.86-.42-3.63-1.08-5.35-.55-1.44-1.08-2.89-1.63-4.33-.09-.21-.18-.43-.32-.75-1.84,1.27-3.63,2.5-5.48,3.77-.17-.27-.32-.5-.49-.77-.2.12-.37.23-.54.34-2.37,1.64-4.72,3.29-7.1,4.91-.4.27-.57.55-.45,1.03.09.37.1.77.17,1.27h-21.39c-.21,0-.42.01-.63,0-.27-.02-.45.08-.55.34-.03.07-.07.14-.11.21-1.79,3.58-3.58,7.15-5.37,10.73-.07.14-.13.28-.21.48.75.17,16.84.09,17.6.09-.38.93-3.74,4.36-7.07,7.22-2.55,2.19-5.26,4.14-8.1,5.93-2.87,1.8-5.91,3.25-9.09,4.6.08,1.6.17,3.21.26,4.88-2.84-.52-5.48-.26-7.89,1.48-.96-1.04-2.2-1.53-3.66-1.72.2-.77.36-1.47.58-2.16.08-.23.3-.42.48-.6,3.27-3.23,6.24-6.71,8.72-10.58,1.36-2.13,2.65-4.33,3.8-6.58,2.89-5.63,5.68-11.31,8.5-16.97.12-.23.2-.47.33-.76h-12.51c-.16.3-.33.62-.49.94-2.51,5-5.01,10-7.54,14.99-.43.85-.95,1.67-1.43,2.5-.05-.03-.11-.06-.17-.09,2.99-5.99,5.98-11.98,9.02-18.05-.33-.02-.55-.05-.77-.05-3.66-.01-7.33.01-10.99-.02-.57,0-.82.21-1.06.69-3.84,7.7-7.69,15.39-11.54,23.08-.75,1.5-1.49,2.99-2.24,4.49-.11.23-.21.47-.37.82,1.01.08,1.94.04,2.86.04h5.85c-.24.25-.34.39-.47.5-1.78,1.55-3.68,2.94-5.65,4.23-.29.19-.59.27-.95.27h-7.6c-.37,1.54-.72,3.05-1.07,4.51-.88-.34-1.67-.75-2.52-.96-2.04-.51-4.05-.31-5.99.5-.85.36-1.62.85-2.21,1.58-.24.29-.51.39-.88.39h-5.1c-.3,0-.55-.03-.76-.3-1.75-2.17-4.1-2.63-6.71-2.35-.32.03-.62.1-.93.16-.41.08-.8.32-1.21-.06-.11-.11-.4-.03-.61-.03h-10.59c.26-1.17.51-2.26.76-3.4h-7.99c-.17.68-.35,1.38-.52,2.05-1.12-.46-2.21-.92-3.34-1.39.13-.08.29-.18.46-.25,1.63-.64,3.26-1.28,4.9-1.89.43-.16.65-.39.76-.86,1.09-4.48,1.93-9,2.24-13.6.09-1.25.07-2.5.1-3.76v-.77c.41.11.75.21,1.1.29,1.47.32,2.92.18,4.34-.26,3.3-1.02,5.55-3.23,7.03-6.29.43-.9.75-1.83.89-2.83.49-3.42-1.97-6.37-5.43-6.45-2.02-.04-3.86.56-5.56,1.63-.16.09-.31.2-.46.3-.13.09-.25.18-.37.26-.05-.03-.08-.04-.09-.06-.01-.01,0-.05,0-.06.04-.07.09-.13.14-.19,5.96-6.35,11.92-12.71,17.88-19.06.02-.02.03-.05.04-.07s.01-.05.06-.18c-.3-.02-.56-.04-.83-.04-3.35-.01-26.28,0-34.39-.02-.73-.01-1.25.17-1.76.74-1.54,1.71-3.14,3.36-4.72,5.04-.14.15-.26.32-.38.47-.16-.09-.24-.11-.29-.16-2.38-2.72-5.42-4.4-8.78-5.56-2.88-.99-5.86-1.56-8.88-1.91-3.96-.46-7.93-.53-11.91-.41-4.08.12-8.14.45-12.19,1.01-5.22.72-10.35,1.84-15.37,3.42-6.49,2.05-12.67,4.79-18.44,8.4-3.81,2.39-7.21,5.28-10.33,8.52-4.12,4.28-7.61,9.04-10.67,14.12-.31.51-.61.72-1.23.72-6.52-.03-13.03.01-19.55-.03-2.15-.01-4.29-.21-6.43-.32-.16-.01-.31-.02-.55-.04-.8,1.59-1.6,3.19-2.47,4.91-1.73-3.23-3.4-6.33-5.12-9.55-1.27,1.36-2.47,2.69-3.72,3.96-1.24,1.26-2.55,2.47-3.94,3.81,1.48-3.05,2.96-5.94,4.41-8.85,1.45-2.91,2.91-5.82,4.43-8.86h-12.58c.15-.34.25-.57.35-.8.99-2.29,1.78-4.63,2.11-7.12.69-5.19-.76-9.66-4.43-13.41-2.32-2.36-5.09-4.08-8.07-5.48-3.88-1.82-7.9-3.2-12.16-3.78-5.1-.69-9.96-.03-14.45,2.68-2.89,1.75-5.18,4.13-7.11,6.88-1.21,1.72-2.24,3.53-3.13,5.43-3.43,7.34-6.89,14.67-10.26,22.04-1.06,2.33-2.07,4.68-3.24,6.96-.07.13-.12.28-.19.47.38.04.7.07,1.1.11-.61,4.56.23,8.73,3.18,12.43C7.64,59.65,3.89,61.45,0,63.06c.29,4.12.57,8.21.86,12.36.2-.06.32-.07.43-.12,4.77-2.27,9.51-4.61,13.96-7.47,1.68-1.07,3.3-2.22,4.93-3.36.38-.27.69-.32,1.13-.13,3.31,1.4,6.73,2.47,10.27,3.09,1.21.21,2.43.34,3.73.51.78,2.45,1.57,4.93,2.39,7.54,4.25-3.01,8.41-6.03,12.36-9.52,1.04,2.77,1.9,5.53,2.91,8.3,5.46-2.69,10.68-5.71,15.59-9.24,4.91-3.53,9.48-7.47,13.73-11.79.04.03.09.05.13.08-.24.5-.47,1-.71,1.49-.25.49-.5.98-.74,1.47-.25.51-.5,1.02-.8,1.62,1.16-.11,2.2-.2,3.23-.32,2.94-.35,5.89-.55,8.85-.55,4.95-.01,9.89,0,14.84,0,.23,0,.46.02.78.04-.15.38-.27.69-.4.99-1.79,4.16-3.28,8.42-4.38,12.82-.79,3.17-1.16,6.38-.87,9.64.31,3.46,1.23,6.73,3.26,9.61,1.84,2.61,4.35,4.42,7.19,5.8,3.09,1.5,6.36,2.38,9.72,2.98,2.96.53,5.95.83,8.96.98.23.01.46.08.69.12h12.56c.26-.04.51-.09.77-.11,2.89-.18,5.8-.3,8.69-.54,3.05-.25,6.07-.68,9.03-1.53,1.35-.39,2.61-.95,3.82-1.63,2.79-1.56,5.56-3.15,8.33-4.72.22-.13.44-.26.56-.23.62.56,1.25,1.11,1.88,1.66,1.96,1.73,4.26,2.83,6.73,3.6,2.61.81,5.29,1.23,8.01,1.47,3.53.31,7.06.19,10.59.22,1.7.02,3.4-.03,5.1.02.69.02,1.06-.17,1.38-.82,2.48-5.01,5.02-10,7.54-14.99.14-.28.29-.55.45-.86,2.52-.14,5.08.27,7.57-.62.03.2.05.35.08.54h7.92c.09-.29.18-.58.27-.86.08-.01.14-.03.17-.01,1.56,1.1,3.29,1.24,5.11.97.34-.05.68-.05,1.02-.05h4.89c.12-.44.23-.84.36-1.29.26.14.48.26.7.38,3.03,1.56,6.04,1.42,9-.18.91-.49,1.55-1.32,2.19-2.11.36-.44.74-.64,1.33-.61.88.05,1.77.01,2.62.01.07.12.13.19.15.26.78,2.36,2.59,3.38,4.91,3.64.72.08,1.46-.05,2.19-.08.16,0,.31-.03.47-.03h7.07c.13,0,.26.02.48.04-.22,1.03-.44,2.01-.66,3.05h7.93c.26-.95.52-1.93.76-2.82,1.04-.13,1.99-.27,2.95-.37.3-.03.61.1.91.1h13.19c.16,0,.31-.03.47-.04.07-.18.14-.35.21-.53.09,0,.17,0,.23.03,1.46.72,3,.85,4.59.58.23-.03.47-.03.7-.03h5.79c.06-1.28.39-2.47.09-3.74h4.88c-.27,1.23-.54,2.43-.83,3.74h16.73c.52,0,1.04.06,1.56.11,1.85.17,3.61-.05,5.18-1.13.09-.05.18-.09.3-.15.72.65,1.54,1.1,2.5,1.23,1.43.19,2.71-.14,3.77-1.15,1.55-1.46,1.42-3.92-.25-5.24-.72-.57-1.53-.9-2.45-.93-.18-.01-.36-.02-.61-.04-.13-3.3-1.73-5.39-5.12-6.03.28-1.08.54-2.13.82-3.25h-8.05c-.08.15-.16.3-.23.44-.7-.11-1.36-.22-2.11-.34.16-.15.31-.3.48-.43,4.46-3.36,8.56-7.13,12.34-11.24,2.64-2.87,5.1-5.9,7.46-9,.24-.31.52-.6.84-.81,3.75-2.54,7.51-5.06,11.26-7.58v-1.26l.06.03c-.05-.3-.14-.61-.14-.91Zm-180.81-.28c-1.44.02-2.88.04-4.32,0-.53-.02-.79.17-1.02.63-2,4.03-4,8.06-6.03,12.07-1.82,3.6-3.91,7.04-6.39,10.23-1.98,2.55-4.39,4.62-7.11,6.34-.99.62-1.99,1.25-3.05,1.92,1.04,3.49,2.06,6.91,3.09,10.36-2.82,1.75-5.76,2.44-8.95,1.45-2.32-.72-3.38-2.5-3.75-4.77-.28-1.74.06-3.44.49-5.12.86-3.36,2.22-6.53,3.75-9.63.11-.23.35-.45.59-.57,7.92-3.85,14.51-9.37,20.26-15.97.3-.34.35-.63.23-1.06-.44-1.55-.84-3.12-1.25-4.69,0-.03,0-.05,0-.08,3.37-2.65,11.1-3.35,14-1.19-.22.03-.38.08-.54.08Zm40.45,14.66c-.39,4.52-1.32,8.94-2.4,13.33-.32,1.29-.65,2.58-.99,3.93h-1.8c-.88,3.76-1.73,7.46-2.61,11.24h.02c-1.9.01-3.71.04-5.51,0-1.01-.03-1.32-.35-1.51-1.36-.21-1.15-.13-2.3.03-3.44.3-2.18.94-4.28,1.52-6.4.41-1.51.84-3.02,1.25-4.53.11-.38.28-.71.58-.99,3.84-3.65,7.27-7.66,10.65-11.73.22-.26.44-.52.69-.82.22.28.1.54.08.77Zm108.52,19.18c.01.07.03.13.03.2h-.55s-.01-.1-.01-.15c.18-.01.35-.03.53-.05Z"/>
  <path class="cls-2" d="m329.72,67.59h-.54s0-.1-.01-.15c.18-.02.35-.04.53-.05,0,.07.02.13.03.2h0Z"/>
  <path class="cls-2" d="m283.38,45.85c-2.08,4.16-4.09,8.2-6.12,12.25-1.12-.07-2.18-.14-3.25-.19-1.12-.06-2.24-.16-3.37-.16-8.08,0-16.16,0-24.24,0-3.41,0-6.78.37-10.16.76-.33.04-.67.06-1.17.1,2.09-4.18,4.12-8.23,6.14-12.24.48,0,.9,0,1.31,0,2.27.09,4.54.26,6.82.27,7.79.03,15.59,0,23.38.02,2.75,0,5.48-.27,8.21-.56.77-.08,1.54-.15,2.45-.24h0Z"/>
  <path class="cls-4" d="m2.59,65.2c.84-.34,1.7-.64,2.52-1.03,6.19-2.94,11.74-6.83,16.77-11.47,3.04-2.8,5.87-5.81,8.44-9.06.19-.24.36-.49.63-.86H11.16c.06-.62,2.18-5.03,3.29-6.91h23.96c.18.48.36.98.54,1.48.06,0,.12-.03.18-.04.16-1.6-.22-3.18-.34-4.84,1.46-1,2.93-2.01,4.46-3.06.88,1.54,1.48,3.11,1.76,4.81.26-1.55-.2-3.04-.38-4.6,1.51-1.02,3.01-2.05,4.58-3.12,1.11,2.38,1.89,4.75,1.91,7.42-2.13,1.43-4.29,2.89-6.55,4.4.03-.43.06-.73.09-1.18-1.62,1.13-3.13,2.18-4.69,3.27.3.52,0,.88-.3,1.26-3.52,4.63-7.25,9.06-11.41,13.13-5.89,5.76-12.45,10.6-19.71,14.5-1.5.8-3.02,1.57-4.53,2.34-.23.12-.47.21-.76.34-.04-.26-.68-6.58-.68-6.79h.01Z"/>
  <path d="m359.03,35.07c-.42.31-.84.62-1.27.92-1.47,1-2.95,1.99-4.43,2.98-.21.14-.43.28-.74.47.04-.38.06-.65.1-1.06-.81.49-1.5,1.02-2.21,1.51-.73.51-1.45,1.03-2.21,1.57.2.54-.08.92-.39,1.32-3.39,4.5-6.99,8.81-11.01,12.77-3.46,3.4-7.17,6.49-11.14,9.29-.53.38-1.07.58-1.74.55-.96-.05-1.93-.01-2.97-.01-.17.7-.35,1.38-.48,2.06-.11.57-.35.97-.9,1.26-1.49.77-2.94,1.6-4.42,2.38-.27.14-.58.26-.88.28-1.08.1-1.75-.53-1.81-1.62-.07-1.33-.15-2.66-.22-4.05,10.97-4.87,19.79-12.39,27.24-21.92-1.22-.08-18-.04-19.18-.04,1.16-2.31,2.25-4.5,3.36-6.71h23.03c.17.46.34.9.5,1.35.28-1.56,0-3.07-.18-4.67,1.43-.99,2.88-1.99,4.37-3.03.81,1.42,1.33,2.87,1.65,4.41.14-1.4-.2-2.74-.37-4.18,1.47-1,2.95-2.02,4.48-3.07.79,2.02,1.65,3.93,1.67,6.08,0,.28.09.56.14.84v.31h0Z"/>
  <path class="cls-1" d="m38.68,28.6c-.18-.33-.33-.57-.45-.82-1.3-2.58-2.6-5.17-3.9-7.75-.15-.3-.3-.61-.48-.89-.62-.96-1.74-1.28-2.73-.81-1.02.49-1.47,1.62-1.07,2.7.1.27.23.52.36.78,1.76,3.49,3.52,6.98,5.28,10.47.12.25.23.5.39.83H14.29c.08-.22.14-.39.21-.54,2.61-5.57,5.19-11.14,7.83-16.69,1.57-3.3,3.58-6.3,6.28-8.79,4.16-3.84,9.1-5.46,14.72-5.01,6.4.51,12.23,2.69,17.62,6.1,2.43,1.54,4.48,3.49,5.92,6.01,1.27,2.23,1.82,4.64,1.74,7.19-.11,3.51-1.26,6.73-2.78,9.85-.25.51-.52,1.01-.8,1.55h-2.2c-1.38,0-2.76.03-4.14,0-.6-.02-.92.14-1.2.71-1.61,3.3-3.27,6.58-4.93,9.85-.86,1.7-1.74,3.38-2.62,5.06-.2.39-.44.76-.71,1.21-1.44-2.87-2.84-5.65-4.26-8.48.27-.19.5-.36.74-.51,2.53-1.7,5.05-3.41,7.6-5.09.46-.3.62-.62.56-1.15-.11-1.01-.16-2.02-.24-3.08.17-.08.35-.18.54-.25,1.38-.54,2.77-1.08,4.15-1.62,1.48-.59,1.98-1.76,1.32-3.2-2.58-5.64-5.17-11.27-7.75-16.9-.33-.73-.81-1.27-1.63-1.43-1.09-.21-1.96.24-2.47,1.33-.91,1.93-1.81,3.87-2.71,5.8-2.02,4.32-4.04,8.63-6.06,12.95-.08.18-.18.35-.33.63h0Z"/>
  <path d="m126.93,73.49c-.69-2.14-1.33-4.13-1.99-6.19.27-.15.54-.31.81-.45,3.84-1.99,7.18-4.59,9.84-8.02,2.26-2.92,4.2-6.06,5.85-9.37.83-1.66,1.67-3.32,2.5-4.97.16-.31.29-.57.74-.56,2.04.03,4.08,0,6.12.02.1,0,.19.03.4.07-.43.88-.84,1.71-1.27,2.58.96-.27,5.2-3.5,6.02-4.56,0-.02-.02-.05-.03-.07s-.03-.05-.05-.05c-.05,0-.1-.02-.15-.03h-19.55s-.05,0-.07-.02c-.02,0-.05-.02-.17-.08,1.11-2.21,2.21-4.42,3.32-6.65h25.25c.06.15.14.31.19.48.35,1.26.67,2.53,1.04,3.78.12.4.03.68-.25.98-4.93,5.47-10.5,10.13-17.04,13.56-.72.38-1.44.76-2.2,1.04-.69.25-1.11.7-1.49,1.29-1.57,2.51-3.32,4.89-5.27,7.11-2.8,3.19-6.03,5.87-9.57,8.2-.95.63-1.92,1.25-2.98,1.94v-.03Z"/>
  <path class="cls-4" d="m63.47,59.09c5.46-3.88,10.23-8.44,14.8-13.38,1,1.85,1.95,3.61,2.95,5.47-7.79,8.12-16.67,14.77-26.75,19.96-.14-.4-1.14-3.35-1.56-4.45-.18-.48-.14-.87.09-1.32,2.85-5.67,5.69-11.36,8.53-17.04,2.27-4.54,4.54-9.07,6.81-13.6.13-.25.26-.51.4-.76h6.91s.05.06.06.08c.01.02.02.05.02.07,0,.05-.02.1-.04.15,0,.02-.02.05-.03.07s-.02.05-.03.07c-.02.05-.04.09-.07.14-4.02,8.04-8.05,16.08-12.07,24.13-.01.02-.02.05-.03.07,0,.02-.03.05-.03.07s0,.05,0,.08c0,.02,0,.05.06.2h-.02Z"/>
  <path d="m193.17,35.12c-4.1,8.21-8.13,16.26-12.23,24.45.5-.14.75-.4,1.03-.6,2.8-2.12,5.46-4.39,7.95-6.86,1.65-1.64,3.25-3.33,4.87-5,.14-.15.24-.34.45-.67,1.02,1.96,1.93,3.71,2.88,5.53-7.52,7.91-16.1,14.4-25.83,19.49-.11-.26-.2-.46-.27-.67-.41-1.24-.79-2.49-1.23-3.72-.18-.49-.1-.88.12-1.33,3.12-6.21,6.23-12.43,9.34-18.65,1.88-3.76,3.78-7.52,5.64-11.29.26-.52.55-.71,1.13-.7,1.75.04,3.51,0,5.26,0h.89Z"/>
  <path class="cls-4" d="m37.29,66.02c1.16-.77,2.26-1.48,3.33-2.23,2.95-2.06,5.38-4.62,7.46-7.55,2.27-3.2,4.27-6.57,6.02-10.09,1.63-3.28,5.2-10.36,5.34-10.64h6.91c-.05.19-5.25,10.76-7.94,15.83-1.95,3.67-4.32,7.1-7.06,10.24-1.67,1.91-3.57,3.6-5.57,5.17-2.05,1.62-6.44,4.91-6.64,5.03-.66-1.93-1.22-3.84-1.84-5.77h0Z"/>
  <path d="m316.67,33.57c-.11.28-.16.42-.23.55-2.43,4.84-4.83,9.69-7.29,14.51-2.95,5.78-6.87,10.86-11.48,15.42-.45.44-.85,1.02-1.39,1.24s-1.24.08-1.86.08h-3.33c-.35,1.49-.69,2.92-1.06,4.47-2.01-1.49-4.23-1.21-6.44-.99-.11-.28-.19-.49-.28-.73.43-.28.83-.53,1.22-.79,8.17-5.3,14.51-12.25,18.9-20.96,2.03-4.01,4.05-8.03,6.04-12.06.26-.53.54-.78,1.18-.76,1.73.05,5.64.02,6.01.02h.01Z"/>
  <path d="m177.32,36.66h6.72c-.05.16-.06.29-.12.4-2.53,5.01-4.99,10.06-7.63,15.02-2.05,3.86-4.52,7.47-7.49,10.7-2.16,2.36-4.65,4.36-7.17,6.31-1.22.95-2.46,1.86-3.7,2.78-.1.07-.21.13-.41.24-.57-1.92-1.13-3.78-1.71-5.71.32-.2.62-.4.92-.59,3.34-2.08,6.31-4.57,8.66-7.74,2.34-3.16,4.41-6.48,6.18-9.99,1.79-3.54,3.56-7.1,5.33-10.65.13-.25.27-.5.41-.77h.01Z"/>
  <path d="m279.03,49.39c-1.12,2.24-2.19,4.39-3.28,6.57-.46-.02-.9-.05-1.34-.07-1.23-.07-2.45-.19-3.68-.2-7.95-.02-15.91-.04-23.86,0-2.25,0-4.49.23-6.73.34h-.64c1.11-2.21,2.18-4.35,3.28-6.54,6.04.34,12.08.18,18.11.17,6-.02,12.01.26,18.13-.29v.02Z"/>
  <path d="m198.91,66.6c-.73-1.97-1.44-3.88-2.17-5.84,3.89-2.98,7.54-6.18,10.85-9.76,3.3-3.56,6.4-7.3,9.36-11.21,1.63,1.07,3.2,2.09,4.82,3.15-6.75,8.72-14.06,16.82-22.87,23.65h0Z"/>
  <path d="m230.55,38.6c.13,1.47.26,2.79.35,4.12.42,6.29-.46,12.45-1.9,18.55-.08.32-.19.55-.54.69-2.49.94-4.97,1.91-7.46,2.87-.04.02-.1,0-.25,0,.07-.29.12-.55.19-.82.94-3.7,1.76-7.41,2.34-11.19.47-3.11.7-6.23.57-9.37-.03-.61.13-.99.7-1.31,1.75-.99,3.46-2.05,5.19-3.09.22-.13.45-.25.82-.46h-.01Z"/>
  <path d="m296.76,33.86h6.78c-4.01,8.04-8,15.99-11.98,23.95h-6.61s-.04-.05-.05-.07c-.01-.02-.02-.05-.02-.07.02-.08.04-.15.07-.22,3.93-7.85,7.86-15.7,11.81-23.58h0Z"/>
  <path class="cls-1" d="m47.4,52.5c-3.19,5.51-7.72,9.36-13.2,12.23.2.73.39,1.39.6,2.15-4.42-.38-8.52-1.62-12.62-3.24.23-.21.38-.34.53-.47,1.14-.95,2.29-1.9,3.43-2.86.31-.26.58-.42,1.04-.38.47.04.98-.11,1.44-.28,4.69-1.77,9.38-3.57,14.06-5.36,1.34-.51,2.69-1.02,4.03-1.53.19-.07.38-.14.69-.25h0Z"/>
  <path class="cls-1" d="m9.56,45.36h15.89c-3.93,4.45-8.21,8.27-12.98,11.54-2.75-2.82-3.76-7.79-2.91-11.54Z"/>
  <path d="m236.14,42.9c-.32-.06-.77-.1-1.19-.22-1.34-.39-2.09-1.54-1.92-2.93.24-1.85,1.09-3.42,2.27-4.82,1.37-1.61,3.09-2.63,5.22-2.89.46-.06.94-.05,1.4.04,1.59.29,2.54,1.51,2.47,3.12,0,.18,0,.37-.06.54-.94,3.47-2.95,5.94-6.52,6.94-.3.08-.62.11-.93.16-.21.03-.42.04-.75.08v-.02Zm1.82-4.81c.92-.19,1.33-.7,1.57-1.51-.86.18-1.24.72-1.57,1.51Z"/>
  <path d="m225.09,73.9c.11.08.15.12.19.15,1.63.89,1.88,2.64.57,3.97-.75.76-1.7,1.09-2.72,1.3-.26.05-.52.11-.78.11h-6.85c.83-3.61,1.66-7.2,2.49-10.82.17-.02.29-.06.42-.06,1.78.03,3.56.02,5.33.12.77.05,1.55.26,2.27.54.82.31,1.38.93,1.44,1.88.07,1-.41,1.7-1.21,2.21-.35.22-.74.39-1.16.6h0Zm-6.29,3.81c1.21.01,2.33.13,3.42-.15.44-.11.9-.34,1.21-.65.79-.76.48-1.93-.55-2.1-1.13-.18-2.27-.08-3.4-.06-.23,1.02-.45,1.95-.68,2.95h0Zm1.08-4.5c1.07-.06,2.04-.07,2.99-.17.37-.04.74-.24,1.07-.45.47-.3.7-.76.59-1.34-.11-.56-.58-.77-1.04-.8-.98-.06-1.96-.02-2.99-.02-.18.73-.35,1.44-.51,2.15-.03.15-.05.3-.1.64h-.01Z"/>
  <path d="m333.83,78.71c-.15.25-.29.49-.43.73h-2.49c.89-3.84,1.76-7.62,2.63-11.41h2.77c-.34,1.34-.67,2.62-.98,3.86.75-.22,1.46-.53,2.18-.6.63-.07,1.32.03,1.92.24,1.11.38,1.7,1.27,1.84,2.42.12.95,0,1.88-.34,2.77-1.08,2.82-4.37,3.82-6.86,2.1-.06-.04-.14-.06-.23-.1h-.01Zm1.88-.8c.97-.02,1.68-.23,2.15-.91.61-.9.78-1.92.63-2.98-.09-.62-.47-.95-1.11-1.03-.61-.08-1.19.03-1.73.32-.42.22-.68.53-.78,1-.15.74-.35,1.47-.51,2.2-.15.66-.01.96.62,1.21.28.11.6.15.74.18h0Z"/>
  <path d="m281.1,71.38h2.47v.64c.09-.02.17-.02.22-.06,1.03-.69,2.16-.88,3.37-.64,1.39.28,2.3,1.27,2.45,2.69.13,1.15-.09,2.24-.64,3.25-1.24,2.28-4.04,3.06-6.28,1.77-.11-.06-.22-.12-.41-.23-.34,1.28-.66,2.51-.99,3.77h-2.77c.86-3.74,1.71-7.43,2.57-11.2h0Zm5.85,3.34c-.03-1.27-.66-1.87-1.91-1.73-.33.04-.66.14-.97.27-.46.19-.74.53-.84,1.04-.15.77-.36,1.53-.53,2.29-.14.62.01.93.58,1.16,1.24.51,2.7-.06,3.21-1.31.22-.55.32-1.15.47-1.72h0Z"/>
  <path d="m293.12,68.03h2.78c-.35,1.37-.68,2.68-1.05,4.13.3-.16.47-.24.64-.33.95-.53,1.95-.72,3.03-.52,1.59.29,2.42,1.4,2.15,2.99-.2,1.18-.5,2.35-.75,3.52-.12.53-.24,1.06-.37,1.63h-2.74c.1-.5.18-.95.28-1.41.26-1.17.53-2.34.78-3.52.23-1.05-.17-1.56-1.24-1.55-.38,0-.78.09-1.15.21-.55.18-.89.54-1.01,1.17-.31,1.51-.69,3-1.05,4.5-.05.2-.11.4-.17.61h-2.72c.83-3.84,1.74-7.6,2.61-11.43h-.02Z"/>
  <path d="m310.72,79.45h-2.68c-.08-.19-.16-.38-.26-.6-.12.05-.24.09-.34.16-1.12.65-2.32.8-3.55.44-.44-.13-.88-.35-1.24-.64-.94-.73-1.02-1.93-.24-2.83.48-.56,1.12-.85,1.8-1.06,1.16-.36,2.37-.44,3.57-.37.6.03.77-.06.85-.52.11-.62-.1-.99-.65-1.16-.88-.26-1.67.04-2.3.9h-2.65c-.05-.46.13-.82.42-1.08.34-.32.71-.63,1.13-.83,1.44-.69,2.97-.8,4.52-.46.47.1.94.32,1.36.58.84.52,1.17,1.3.97,2.29-.15.72-.31,1.43-.45,2.14-.2.99-.57,1.96-.23,3.04h-.03Zm-2.45-3.66c-.89-.04-1.67-.03-2.43.23-.43.14-.81.36-1.02.8-.25.52-.1.95.45,1.11.72.22,1.38.03,2.05-.27.59-.26.74-.76.84-1.31.03-.15.06-.3.11-.56h0Z"/>
  <path d="m269.44,79.45c-.08-.21-.14-.38-.21-.59-.11.04-.21.06-.29.11-1.11.68-2.29.84-3.54.52-.37-.1-.75-.25-1.07-.46-1.3-.83-1.38-2.37-.17-3.35.87-.7,1.91-.95,2.99-1.05.78-.07,1.56-.05,2.35-.07.13,0,.25-.03.44-.05.05-.27.13-.51.14-.76.02-.46-.19-.72-.65-.86-.77-.24-1.58,0-2.11.61-.11.13-.26.24-.41.3-.14.05-.31.02-.47.02h-1.99c0-.65.27-1.09.7-1.4.46-.33.97-.61,1.51-.81,1.2-.43,2.45-.48,3.71-.24.36.07.71.18,1.04.33,1.25.57,1.68,1.45,1.4,2.8-.15.72-.29,1.43-.46,2.14-.21.91-.47,1.82-.19,2.81h-2.72Zm.25-3.65c-.8-.07-1.52-.05-2.22.16-.34.1-.67.29-.96.51-.3.23-.44.59-.34.98.1.39.44.5.79.54.75.09,1.45-.08,2.08-.52.57-.4.47-1.05.65-1.68h0Z"/>
  <path d="m248.04,76.15c-.04.88.26,1.35,1.03,1.6,1.03.33,2.01.12,2.96-.32.21-.1.4-.23.66-.38.4.37.79.74,1.27,1.19-.41.28-.72.56-1.09.73-1.66.76-3.37.88-5.12.34-.22-.07-.44-.17-.65-.28-1.56-.8-2.22-2.2-1.84-3.92.44-1.97,2.15-3.54,4.22-3.79.77-.09,1.57-.11,2.34,0,2.11.31,3.26,1.98,2.88,4.07-.04.23-.11.45-.18.74h-6.49v.02Zm4.03-1.54c.1-.89-.04-1.24-.55-1.48-.9-.42-2.8-.15-3.22,1.48h3.77Z"/>
  <path d="m241.62,71.4h2.75c-.57,2.72-1.22,5.36-1.84,8.05h-2.48c0-.2-.02-.4-.03-.65-.12.05-.22.08-.3.13-1.12.71-2.33.88-3.61.57-1.33-.32-2.06-1.28-1.92-2.64.09-.83.31-1.64.49-2.45.22-.99.45-1.98.68-3h2.76c-.18.84-.35,1.62-.53,2.41-.2.89-.41,1.78-.59,2.68-.2.99.19,1.44,1.2,1.41.36-.01.73-.07,1.08-.18.6-.19,1.02-.52,1.15-1.23.28-1.46.66-2.9,1-4.35.05-.23.12-.45.2-.74h0Z"/>
  <path class="cls-1" d="m50.53,22.5c-1.96,1.32-3.83,2.59-5.72,3.86-.28-.38-.05-.62.06-.85.94-2.04,1.9-4.07,2.85-6.1.53-1.14,1.06-2.27,1.59-3.41.11-.23.24-.44.43-.81,1.72,3.75,3.38,7.36,5.08,11.06-.82.33-1.59.63-2.47.98-.6-1.55-1.19-3.07-1.83-4.72h.01Z"/>
  <path class="cls-1" d="m44.03,49.16c-3.4,1.3-6.73,2.57-10.02,3.83-.09-.06-.12-.07-.12-.09v-.08c.13-.16,5.08-6.03,7.49-8.87.88,1.67,1.73,3.41,2.65,5.21Z"/>
  <path d="m323.06,68.02h2.79c-.89,3.84-1.76,7.62-2.63,11.43h-2.8c.89-3.83,1.76-7.62,2.64-11.43h0Z"/>
  <path d="m276.72,68.02h2.79c-.88,3.84-1.75,7.61-2.63,11.42h-2.8c.88-3.82,1.76-7.6,2.64-11.42h0Z"/>
  <path d="m231.07,79.46h-2.78c.85-3.85,1.75-7.63,2.64-11.44h2.78c-.88,3.84-1.75,7.61-2.63,11.44h0Z"/>
  <path d="m328.47,79.46h-2.74c.63-2.72,1.25-5.39,1.86-8.06h2.65c.05.59-1.29,6.66-1.77,8.06Z"/>
  <path d="m318.82,75.66h-5.42c.06-.31.1-.58.16-.85.06-.25.13-.5.2-.8h5.4c-.11.54-.22,1.05-.35,1.64h.01Z"/>
  <path d="m256.63,73.99h5.44c-.13.58-.25,1.12-.37,1.67h-5.41c.12-.57.22-1.08.34-1.67Z"/>
  <path d="m345.82,78.46c-.16.25-.27.52-.47.71-.58.54-1.69.56-2.31.07-.51-.41-.55-1.03-.09-1.49.63-.62,1.89-.64,2.49,0,.17.18.24.44.39.71h-.01Z"/>
  <path d="m329.44,68.05c.42.15.81.23,1.12.43.6.38.61,1.04.08,1.5-.58.51-1.73.52-2.33.02-.51-.42-.54-1.08,0-1.46.32-.23.74-.33,1.12-.5h.01Z"/>
  <path class="cls-3" d="m246.5,14.49c-9.29,0-18.58.01-27.87,0-.46,0-.78.12-1.09.46-2.11,2.26-4.23,4.5-6.34,6.75-.2.21-.33.46-.55.77-.25-.42-.38-.64-.51-.87-.71-1.26-1.64-2.36-2.74-3.3-1.76-1.5-3.77-2.54-5.93-3.31-3.78-1.35-7.71-1.91-11.69-2.16-4.24-.27-8.47-.17-12.71.09-4.89.3-9.73.94-14.52,1.96-7.53,1.6-14.73,4.15-21.57,7.72-5.84,3.05-10.96,7-15.39,11.87-3.26,3.58-6.1,7.45-8.64,11.54h1.43s.29,0,.29,0h.2c.29,0,.51,0,.9-.02.67-.04,1.29-.08,1.95-.13h.16c.37-.04.89-.07,1.73-.12l5.04-.3-2.15,4.57c-.04.08-.14.28-1.29,2.57-.64,1.28-1.39,2.76-1.87,3.72-.55,1.1-1.64,1.78-2.86,1.78h-.15s-.12-.01-.12-.01c-.5-.04-1-.08-1.5-.11-.23-.02-.46-.03-.69-.04h-.25s-.37-.03-.37-.03c-.35-.02-.71-.04-1.06-.05h-.31c-.93,0-2.92,0-5.42,0-2.01,4.41-3.68,8.97-4.91,13.7-1,3.84-1.37,7.7-.59,11.64.9,4.5,3.25,7.93,7.26,10.2,2.2,1.25,4.54,2.12,6.98,2.76,4.1,1.06,8.28,1.53,12.49,1.73.41.02.82.09,1.23.14v.04h9.27c.6-.05,1.19-.13,1.79-.14,4.81-.11,9.62-.37,14.38-1.12,2.52-.4,4.94-1.08,7.22-2.28,3.55-1.86,7.01-3.87,10.38-6.03.25-.16.51-.31.8-.48.56,1.6,1.56,2.75,2.76,3.76,1.76,1.48,3.82,2.36,5.99,3,2.93.87,5.94,1.26,8.98,1.34,4.1.1,8.21.06,12.32.1.44,0,.65-.18.83-.55,2.18-4.35,4.37-8.69,6.56-13.03.08-.15.11-.33.19-.58h-2.24c.16-.77.29-1.46.45-2.23h-.84c-1.31,0-2.62.01-3.93,0-2.33-.03-3.66-1.13-4.1-3.41-.31-1.61-.23-3.24.1-4.83.45-2.15,1.02-4.27,1.54-6.4.05-.21.09-.43.16-.76-2.68,2.21-5.25,4.33-7.9,6.52-1.4-3.74-2.75-7.34-4.13-11.04-6.97,6.21-14.6,11.18-22.9,15.3-.8-2.42-1.57-4.76-2.34-7.1-.06-.03-.13-.06-.2-.09-.08.14-.13.3-.24.41-1.31,1.38-2.61,2.78-3.97,4.12-2.06,2.01-4.28,3.84-6.78,5.31-2.7,1.58-5.56,2.5-8.75,2.17-5.36-.56-7.54-4.17-7.86-8.01-.16-1.98.21-3.91.71-5.81.09-.35.18-.7.27-1.05-.05-.04-.09-.07-.14-.11-4.47,5.18-10.07,8.88-15.97,12.37-1.24-3.86-2.45-7.63-3.67-11.44.62-.31,1.17-.6,1.73-.87,4.84-2.31,8.74-5.67,11.71-10.15,2.15-3.24,3.93-6.67,5.64-10.14.03-.08.02-.19.03-.34-.8,0-8.35.08-9.16-.09.14-.31.25-.54.36-.77,1.73-3.46,3.47-6.92,5.18-10.39.26-.52.55-.71,1.13-.71,9.18.02,18.37.01,27.55.02.49,0,.92-.09,1.35-.31,3.51-1.75,7.19-2.47,11.11-1.87,2.2.33,4.22,1.01,5.76,2.72.02.03.09.03.15.03.11-.16.23-.33.33-.49,1.92-.15,11.95-.08,12.58.11-2.74,5.48-5.48,10.96-8.21,16.43.06.04.11.08.17.12,2.21-2.35,4.42-4.7,6.71-7.13,1.81,3.47,3.57,6.87,5.37,10.33-2.07,2.08-4.11,4.12-6.15,6.16.11-.01.2-.05.28-.11,3.83-2.89,7.39-6.09,10.63-9.63,3.46-3.79,6.69-7.77,9.77-11.87.16-.22.34-.44.54-.68,2.08,1.36,4.11,2.69,6.13,4.01.73-.38,1.36-.77,1.89-1.34,1.63-1.78,3.29-3.52,4.94-5.27,5.82-6.19,11.64-12.39,17.46-18.59.16-.16.28-.34.49-.6-.34-.02-.56-.04-.79-.04Z"/>
  <path class="cls-4" d="m123.79,48.72c-.06.12-2.14,4.26-3.12,6.22-.05.09-.1.12-.17.12-.01,0-.02,0-.04,0-.51-.04-1.02-.08-1.53-.11-.33-.02-.65-.04-.98-.05-.5-.03-1.01-.06-1.51-.08-.01,0-26.82.06-27.7.09-.32.01-.64.02-.95.04-.43.03-.87.07-1.3.1-.51.04-1.02.08-1.53.12,0,0-.01,0-.02,0-.01,0-.03,0-.05,0,.02-.04.02-.07.04-.09,1.02-2.03,2.05-4.06,3.07-6.09,0,0,0-.02.01-.02.07-.14.08-.17.19-.17.03,0,.06,0,.11,0,.96.05,1.91.13,2.87.16.46.01,1.96.03,3.87.04,3.61.02,8.7.03,11.09.03,4.07,0,8.15,0,12.22,0,.01,0,.38,0,.52,0,.34,0,.6,0,1.06-.03.75-.04,1.43-.09,2.18-.15.36-.03.86-.06,1.68-.11"/>
</svg>