<?xml version="1.0" encoding="UTF-8"?>
<svg id="Layer_1" data-name="Layer 1" xmlns="http://www.w3.org/2000/svg" viewBox="0 0 361.59 100">
  <defs>
    <style>
      .cls-1 {
        fill: #0100ff;
      }

      .cls-2 {
        fill: #fff;
      }

      .cls-3 {
        fill: red;
      }

      .cls-4 {
        fill: #3f56ff;
      }
    </style>
  </defs>
  <path class="cls-2" d="m362.15,35.36v1.26c-3.75,2.52-7.51,5.04-11.26,7.58-.32.21-.6.5-.84.81-2.36,3.1-4.82,6.13-7.46,9-3.78,4.11-7.88,7.88-12.34,11.24-.17.13-.32.28-.48.43.75.12,1.41.23,2.11.34.07-.14.15-.29.23-.44h8.05c-.28,1.12-.54,2.17-.82,3.25,3.39.64,4.99,2.73,5.12,6.03.25.02.43.03.61.04.92.03,1.73.36,2.45.93,1.67,1.32,1.8,3.78.25,5.24-1.06,1.01-2.34,1.34-3.77,1.15-.96-.13-1.78-.58-2.5-1.23-.12.06-.21.1-.3.15-1.57,1.08-3.33,1.3-5.18,1.13-.52-.05-1.04-.11-1.56-.11-5.26,0-10.52,0-15.78,0h-.95c.29-1.31.56-2.51.83-3.74h-4.88c.3,1.27-.03,2.46-.09,3.74h-.84c-1.65,0-3.3,0-4.95,0-.23,0-.47,0-.7.03-1.59.27-3.13.14-4.59-.58-.06-.03-.14-.02-.23-.03-.07.18-.14.35-.21.53-.16.01-.31.04-.47.04-4.4,0-8.79,0-13.19,0-.3,0-.61-.13-.91-.1-.96.1-1.91.24-2.95.37-.24.89-.5,1.87-.76,2.82h-7.93c.22-1.04.44-2.02.66-3.05-.22-.02-.35-.04-.48-.04-2.36,0-4.71,0-7.07,0-.16,0-.31.03-.47.03-.73.03-1.47.16-2.19.08-2.32-.26-4.13-1.28-4.91-3.64-.02-.07-.08-.14-.15-.26-.85,0-1.74.04-2.62-.01-.59-.03-.97.17-1.33.61-.64.79-1.28,1.62-2.19,2.11-2.96,1.6-5.97,1.74-9,.18-.22-.12-.44-.24-.7-.38-.13.45-.24.85-.36,1.29-1.65,0-3.27,0-4.89,0-.34,0-.68,0-1.02.05-1.82.27-3.55.13-5.11-.97-.03-.02-.09,0-.17.01-.09.28-.18.57-.27.86h-7.92c-.03-.19-.05-.34-.08-.54-2.49.89-5.05.48-7.57.62-.16.31-.31.58-.45.86-2.52,4.99-5.06,9.98-7.54,14.99-.32.65-.69.84-1.38.82-1.7-.05-3.4,0-5.1-.02-3.53-.03-7.06.09-10.59-.22-2.72-.24-5.4-.66-8.01-1.47-2.47-.77-4.77-1.87-6.73-3.6-.63-.55-1.26-1.1-1.88-1.66-.12-.03-.34.1-.56.23-2.77,1.57-5.54,3.16-8.33,4.72-1.21.68-2.47,1.24-3.82,1.63-2.96.85-5.98,1.28-9.03,1.53-2.89.24-5.8.36-8.69.54-.26.02-.51.07-.77.11h-12.56c-.23-.04-.46-.11-.69-.12-3.01-.15-6-.45-8.96-.98-3.36-.6-6.63-1.48-9.72-2.98-2.84-1.38-5.35-3.19-7.19-5.8-2.03-2.88-2.95-6.15-3.26-9.61-.29-3.26.08-6.47.87-9.64,1.1-4.4,2.59-8.66,4.38-12.82.13-.3.25-.61.4-.99-.32-.02-.55-.04-.78-.04-4.95,0-9.89-.01-14.84,0-2.96,0-5.91.2-8.85.55-1.03.12-2.07.21-3.23.32.3-.6.55-1.11.8-1.62.24-.49.49-.98.74-1.47.24-.49.47-.99.71-1.49-.04-.03-.09-.05-.13-.08-4.25,4.32-8.82,8.26-13.73,11.79-4.91,3.53-10.13,6.55-15.59,9.24-1.01-2.77-1.87-5.53-2.91-8.3-3.95,3.49-8.11,6.51-12.36,9.52-.82-2.61-1.61-5.09-2.39-7.54-1.3-.17-2.52-.3-3.73-.51-3.54-.62-6.96-1.69-10.27-3.09-.44-.19-.75-.14-1.13.13-1.63,1.14-3.25,2.29-4.93,3.36-4.45,2.86-9.19,5.2-13.96,7.47-.11.05-.23.06-.43.12-.29-4.15-.57-8.24-.86-12.36,3.89-1.61,7.64-3.41,11.13-5.8-2.95-3.7-3.79-7.87-3.18-12.43-.4-.04-.72-.07-1.1-.11.07-.19.12-.34.19-.47,1.17-2.28,2.18-4.63,3.24-6.96,3.37-7.37,6.83-14.7,10.26-22.04.89-1.9,1.92-3.71,3.13-5.43,1.93-2.75,4.22-5.13,7.11-6.88C35.81.88,40.67.22,45.77.91c4.26.58,8.28,1.96,12.16,3.78,2.98,1.4,5.75,3.12,8.07,5.48,3.67,3.75,5.12,8.22,4.43,13.41-.33,2.49-1.12,4.83-2.11,7.12-.1.23-.2.46-.35.8h12.58c-1.52,3.04-2.98,5.95-4.43,8.86-1.45,2.91-2.93,5.8-4.41,8.85,1.39-1.34,2.7-2.55,3.94-3.81,1.25-1.27,2.45-2.6,3.72-3.96,1.72,3.22,3.39,6.32,5.12,9.55.87-1.72,1.67-3.32,2.47-4.91.24.02.39.03.55.04,2.14.11,4.28.31,6.43.32,6.52.04,13.03,0,19.55.03.62,0,.92-.21,1.23-.72,3.06-5.08,6.55-9.84,10.67-14.12,3.12-3.24,6.52-6.13,10.33-8.52,5.77-3.61,11.95-6.35,18.44-8.4,5.02-1.58,10.15-2.7,15.37-3.42,4.05-.56,8.11-.89,12.19-1.01,3.98-.12,7.95-.05,11.91.41,3.02.35,6,.92,8.88,1.91,3.36,1.16,6.4,2.84,8.78,5.56.05.05.13.07.29.16.12-.15.24-.32.38-.47,1.58-1.68,3.18-3.33,4.72-5.04.51-.57,1.03-.75,1.76-.74,8.11.02,31.04.01,34.39.02.27,0,.53.02.83.04-.05.13-.05.16-.06.18-.01.02-.02.05-.04.07-5.96,6.35-11.92,12.71-17.88,19.06-.05.06-.1.12-.14.19,0,.01-.01.05,0,.06.01.02.04.03.09.06.12-.08.24-.17.37-.26.15-.1.3-.21.46-.3,1.7-1.07,3.54-1.67,5.56-1.63,3.46.08,5.92,3.03,5.43,6.45-.14,1-.46,1.93-.89,2.83-1.48,3.06-3.73,5.27-7.03,6.29-1.42.44-2.87.58-4.34.26-.35-.08-.69-.18-1.1-.29,0,.3,0,.54,0,.77-.03,1.26-.01,2.51-.1,3.76-.31,4.6-1.15,9.12-2.24,13.6-.11.47-.33.7-.76.86-1.64.61-3.27,1.25-4.9,1.89-.17.07-.33.17-.46.25,1.13.47,2.22.93,3.34,1.39.17-.67.35-1.37.52-2.05h7.99c-.25,1.14-.5,2.23-.76,3.4h.93c3.22,0,6.44,0,9.66,0,.21,0,.5-.08.61.03.41.38.8.14,1.21.06.31-.06.61-.13.93-.16,2.61-.28,4.96.18,6.71,2.35.21.27.46.3.76.3,1.7,0,3.4,0,5.1,0,.37,0,.64-.1.88-.39.59-.73,1.36-1.22,2.21-1.58,1.94-.81,3.95-1.01,5.99-.5.85.21,1.64.62,2.52.96.35-1.46.7-2.97,1.07-4.51.36,0,.65,0,.93,0,2.22,0,4.45,0,6.67,0,.36,0,.66-.08.95-.27,1.97-1.29,3.87-2.68,5.65-4.23.13-.11.23-.25.47-.5h-2.95c-.97,0-1.94,0-2.9,0-.92,0-1.85.04-2.86-.04.16-.35.26-.59.37-.82.75-1.5,1.49-2.99,2.24-4.49,3.85-7.69,7.7-15.38,11.54-23.08.24-.48.49-.69,1.06-.69,3.66.03,7.33.01,10.99.02.22,0,.44.03.77.05-3.04,6.07-6.03,12.06-9.02,18.05.06.03.12.06.17.09.48-.83,1-1.65,1.43-2.5,2.53-4.99,5.03-9.99,7.54-14.99.16-.32.33-.64.49-.94h12.51c-.13.29-.21.53-.33.76-2.82,5.66-5.61,11.34-8.5,16.97-1.15,2.25-2.44,4.45-3.8,6.58-2.48,3.87-5.45,7.35-8.72,10.58-.18.18-.4.37-.48.6-.22.69-.38,1.39-.58,2.16,1.46.19,2.7.68,3.66,1.72,2.41-1.74,5.05-2,7.89-1.48-.09-1.67-.18-3.28-.26-4.88,3.18-1.35,6.22-2.8,9.09-4.6,2.84-1.79,5.55-3.74,8.1-5.93,3.33-2.86,6.69-6.29,7.07-7.22-.76,0-16.85.08-17.6-.09.08-.2.14-.34.21-.48,1.79-3.58,3.58-7.15,5.37-10.73.04-.07.08-.14.11-.21.1-.26.28-.36.55-.34.21.01.42,0,.63,0,6.8,0,13.61,0,20.41,0h.98c-.07-.5-.08-.9-.17-1.27-.12-.48.05-.76.45-1.03,2.38-1.62,4.73-3.27,7.1-4.91.17-.11.34-.22.54-.34.17.27.32.5.49.77,1.85-1.27,3.64-2.5,5.48-3.77.14.32.23.54.32.75.55,1.44,1.08,2.89,1.63,4.33.66,1.72,1.07,3.49,1.08,5.35,0,.3.09.61.14.91Zm-208.81,30.03c1.06-.67,2.06-1.3,3.05-1.92,2.72-1.72,5.13-3.79,7.11-6.34,2.48-3.19,4.57-6.63,6.39-10.23,2.03-4.01,4.03-8.04,6.03-12.07.23-.46.49-.65,1.02-.63,1.44.04,2.88.02,4.32,0,.16,0,.32-.05.54-.08-2.9-2.16-10.63-1.46-14,1.19,0,.03-.01.05,0,.08.41,1.57.81,3.14,1.25,4.69.12.43.07.72-.23,1.06-5.75,6.6-12.34,12.12-20.26,15.97-.24.12-.48.34-.59.57-1.53,3.1-2.89,6.27-3.75,9.63-.43,1.68-.77,3.38-.49,5.12.37,2.27,1.43,4.05,3.75,4.77,3.19.99,6.13.3,8.95-1.45-1.03-3.45-2.05-6.87-3.09-10.36Zm60.57,11.97c.88-3.78,1.73-7.48,2.61-11.24h1.8c.34-1.35.67-2.64.99-3.93,1.08-4.39,2.01-8.81,2.4-13.33.02-.23.14-.49-.08-.77-.25.3-.47.56-.69.82-3.38,4.07-6.81,8.08-10.65,11.73-.3.28-.47.61-.58.99-.41,1.51-.84,3.02-1.25,4.53-.58,2.12-1.22,4.22-1.52,6.4-.16,1.14-.24,2.29-.03,3.44.19,1.01.5,1.33,1.51,1.36,1.8.04,3.61.01,5.51.01Zm116.35-9.12c0-.07-.02-.13-.03-.2-.18.02-.35.04-.53.05,0,.05,0,.1.01.15h.54Z"/>
  <path class="cls-2" d="m330.26,68.24h-.54s0-.1-.01-.15c.18-.02.35-.04.53-.05,0,.07.02.13.03.2Z"/>
  <path class="cls-2" d="m283.92,46.5c-2.08,4.16-4.09,8.2-6.12,12.25-1.12-.07-2.18-.14-3.25-.19-1.12-.06-2.24-.16-3.37-.16-8.08-.01-16.16,0-24.24,0-3.41,0-6.78.37-10.16.76-.33.04-.67.06-1.17.1,2.09-4.18,4.12-8.23,6.14-12.24.48,0,.9-.01,1.31,0,2.27.09,4.54.26,6.82.27,7.79.03,15.59,0,23.38.02,2.75,0,5.48-.27,8.21-.56.77-.08,1.54-.15,2.45-.24Z"/>
  <path class="cls-3" d="m133.62,98.65c-.41-.05-.82-.12-1.23-.14-4.21-.2-8.39-.67-12.49-1.73-2.44-.64-4.78-1.51-6.98-2.76-4.01-2.27-6.36-5.7-7.26-10.2-.78-3.94-.41-7.8.59-11.64,1.95-7.54,5.03-14.62,8.81-21.4,3.13-5.61,6.73-10.9,11.07-15.66,4.43-4.87,9.55-8.82,15.39-11.87,6.84-3.57,14.04-6.12,21.57-7.72,4.79-1.02,9.63-1.66,14.52-1.96,4.24-.26,8.47-.36,12.71-.09,3.98.25,7.91.81,11.69,2.16,2.16.77,4.17,1.81,5.93,3.31,1.1.94,2.03,2.04,2.74,3.3.13.23.26.45.51.87.22-.31.35-.56.55-.77,2.11-2.25,4.23-4.49,6.34-6.75.31-.34.63-.46,1.09-.46,9.29.01,18.58,0,27.87,0,.23,0,.45.02.79.04-.21.26-.33.44-.49.6-5.82,6.2-11.64,12.4-17.46,18.59-1.65,1.75-3.31,3.49-4.94,5.27-.53.57-1.16.96-1.89,1.34-2.02-1.32-4.05-2.65-6.13-4.01-.2.24-.38.46-.54.68-3.08,4.1-6.31,8.08-9.77,11.87-3.24,3.54-6.8,6.74-10.63,9.63-.08.06-.17.1-.28.11,2.04-2.04,4.08-4.08,6.15-6.16-1.8-3.46-3.56-6.86-5.37-10.33-2.29,2.43-4.5,4.78-6.71,7.13-.06-.04-.11-.08-.17-.12,2.73-5.47,5.47-10.95,8.21-16.43-.63-.19-10.66-.26-12.58-.11-.1.16-.22.33-.33.49-.06,0-.13,0-.15-.03-1.54-1.71-3.56-2.39-5.76-2.72-3.92-.6-7.6.12-11.11,1.87-.43.22-.86.31-1.35.31-9.18-.01-18.37,0-27.55-.02-.58,0-.87.19-1.13.71-1.71,3.47-3.45,6.93-5.18,10.39-.11.23-.22.46-.36.77.81.17,8.36.09,9.16.09-.01.15,0,.26-.03.34-1.71,3.47-3.49,6.9-5.64,10.14-2.97,4.48-6.87,7.84-11.71,10.15-.56.27-1.11.56-1.73.87,1.22,3.81,2.43,7.58,3.67,11.44,5.9-3.49,11.5-7.19,15.97-12.37.05.04.09.07.14.11-.09.35-.18.7-.27,1.05-.5,1.9-.87,3.83-.71,5.81.32,3.84,2.5,7.45,7.86,8.01,3.19.33,6.05-.59,8.75-2.17,2.5-1.47,4.72-3.3,6.78-5.31,1.36-1.34,2.66-2.74,3.97-4.12.11-.11.16-.27.24-.41.07.03.14.06.2.09.77,2.34,1.54,4.68,2.34,7.1,8.3-4.12,15.93-9.09,22.9-15.3,1.38,3.7,2.73,7.3,4.13,11.04,2.65-2.19,5.22-4.31,7.9-6.52-.07.33-.11.55-.16.76-.52,2.13-1.09,4.25-1.54,6.4-.33,1.59-.41,3.22-.1,4.83.44,2.28,1.77,3.38,4.1,3.41,1.31.01,2.62,0,3.93,0,.26,0,.51,0,.84,0-.16.77-.29,1.46-.45,2.23h2.24c-.08.25-.11.43-.19.58-2.19,4.34-4.38,8.68-6.56,13.03-.18.37-.39.55-.83.55-4.11-.04-8.22,0-12.32-.1-3.04-.08-6.05-.47-8.98-1.34-2.17-.64-4.23-1.52-5.99-3-1.2-1.01-2.2-2.16-2.76-3.76-.29.17-.55.32-.8.48-3.37,2.16-6.83,4.17-10.38,6.03-2.28,1.2-4.7,1.88-7.22,2.28-4.76.75-9.57,1.01-14.38,1.12-.6.01-1.19.09-1.79.14-3.09,0-6.18,0-9.26,0Z"/>
  <path class="cls-4" d="m3.13,65.85c.84-.34,1.7-.64,2.52-1.03,6.19-2.94,11.74-6.83,16.77-11.47,3.04-2.8,5.87-5.81,8.44-9.06.19-.24.36-.49.63-.86H11.7c.06-.62,2.18-5.03,3.29-6.91h23.96c.18.48.36.98.54,1.48.06-.01.12-.03.18-.04.16-1.6-.22-3.18-.34-4.84,1.46-1,2.93-2.01,4.46-3.06.88,1.54,1.48,3.11,1.76,4.81.26-1.55-.2-3.04-.38-4.6,1.51-1.02,3.01-2.05,4.58-3.12,1.11,2.38,1.89,4.75,1.91,7.42-2.13,1.43-4.29,2.89-6.55,4.4.03-.43.06-.73.09-1.18-1.62,1.13-3.13,2.18-4.69,3.27.3.52-.01.88-.3,1.26-3.52,4.63-7.25,9.06-11.41,13.13-5.89,5.76-12.45,10.6-19.71,14.5-1.5.8-3.02,1.57-4.53,2.34-.23.12-.47.21-.76.34-.04-.26-.68-6.58-.68-6.79Z"/>
  <path d="m359.57,35.72c-.42.31-.84.62-1.27.92-1.47,1-2.95,1.99-4.43,2.98-.21.14-.43.28-.74.47.04-.38.06-.65.1-1.06-.81.49-1.5,1.02-2.21,1.51-.73.51-1.45,1.03-2.21,1.57.2.54-.08.92-.39,1.32-3.39,4.5-6.99,8.81-11.01,12.77-3.46,3.4-7.17,6.49-11.14,9.29-.53.38-1.07.58-1.74.55-.96-.05-1.93-.01-2.97-.01-.17.7-.35,1.38-.48,2.06-.11.57-.35.97-.9,1.26-1.49.77-2.94,1.6-4.42,2.38-.27.14-.58.26-.88.28-1.08.1-1.75-.53-1.81-1.62-.07-1.33-.15-2.66-.22-4.05,10.97-4.87,19.79-12.39,27.24-21.92-1.22-.08-18-.04-19.18-.04,1.16-2.31,2.25-4.5,3.36-6.71h23.03c.17.46.34.9.5,1.35.28-1.56,0-3.07-.18-4.67,1.43-.99,2.88-1.99,4.37-3.03.81,1.42,1.33,2.87,1.65,4.41.14-1.4-.2-2.74-.37-4.18,1.47-1,2.95-2.02,4.48-3.07.79,2.02,1.65,3.93,1.67,6.08,0,.28.09.56.14.84v.31Z"/>
  <path class="cls-1" d="m39.22,29.25c-.18-.33-.33-.57-.45-.82-1.3-2.58-2.6-5.17-3.9-7.75-.15-.3-.3-.61-.48-.89-.62-.96-1.74-1.28-2.73-.81-1.02.49-1.47,1.62-1.07,2.7.1.27.23.52.36.78,1.76,3.49,3.52,6.98,5.28,10.47.12.25.23.5.39.83H14.83c.08-.22.14-.39.21-.54,2.61-5.57,5.19-11.14,7.83-16.69,1.57-3.3,3.58-6.3,6.28-8.79,4.16-3.84,9.1-5.46,14.72-5.01,6.4.51,12.23,2.69,17.62,6.1,2.43,1.54,4.48,3.49,5.92,6.01,1.27,2.23,1.82,4.64,1.74,7.19-.11,3.51-1.26,6.73-2.78,9.85-.25.51-.52,1.01-.8,1.55-.75,0-1.47,0-2.2,0-1.38,0-2.76.03-4.14-.01-.6-.02-.92.14-1.2.71-1.61,3.3-3.27,6.58-4.93,9.85-.86,1.7-1.74,3.38-2.62,5.06-.2.39-.44.76-.71,1.21-1.44-2.87-2.84-5.65-4.26-8.48.27-.19.5-.36.74-.51,2.53-1.7,5.05-3.41,7.6-5.09.46-.3.62-.62.56-1.15-.11-1.01-.16-2.02-.24-3.08.17-.08.35-.18.54-.25,1.38-.54,2.77-1.08,4.15-1.62,1.48-.59,1.98-1.76,1.32-3.2-2.58-5.64-5.17-11.27-7.75-16.9-.33-.73-.81-1.27-1.63-1.43-1.09-.21-1.96.24-2.47,1.33-.91,1.93-1.81,3.87-2.71,5.8-2.02,4.32-4.04,8.63-6.06,12.95-.08.18-.18.35-.33.63Z"/>
  <path d="m127.47,74.14c-.69-2.14-1.33-4.13-1.99-6.19.27-.15.54-.31.81-.45,3.84-1.99,7.18-4.59,9.84-8.02,2.26-2.92,4.2-6.06,5.85-9.37.83-1.66,1.67-3.32,2.5-4.97.16-.31.29-.57.74-.56,2.04.03,4.08.01,6.12.02.1,0,.19.03.4.07-.43.88-.84,1.71-1.27,2.58.96-.27,5.2-3.5,6.02-4.56,0-.02-.02-.05-.03-.07-.01-.02-.03-.05-.05-.05-.05-.01-.1-.02-.15-.03-.05,0-.1,0-.16,0-6.44,0-12.88,0-19.31,0-.03,0-.05,0-.08,0-.03,0-.05-.01-.07-.02-.02,0-.05-.02-.17-.08,1.11-2.21,2.21-4.42,3.32-6.65h25.25c.06.15.14.31.19.48.35,1.26.67,2.53,1.04,3.78.12.4.03.68-.25.98-4.93,5.47-10.5,10.13-17.04,13.56-.72.38-1.44.76-2.2,1.04-.69.25-1.11.7-1.49,1.29-1.57,2.51-3.32,4.89-5.27,7.11-2.8,3.19-6.03,5.87-9.57,8.2-.95.63-1.92,1.25-2.98,1.94Z"/>
  <path class="cls-4" d="m64.01,59.74c5.46-3.88,10.23-8.44,14.8-13.38,1,1.85,1.95,3.61,2.95,5.47-7.79,8.12-16.67,14.77-26.75,19.96-.14-.4-1.14-3.35-1.56-4.45-.18-.48-.14-.87.09-1.32,2.85-5.67,5.69-11.36,8.53-17.04,2.27-4.54,4.54-9.07,6.81-13.6.13-.25.26-.51.4-.76h6.91s.05.06.06.08c.01.02.02.05.02.07,0,.05-.02.1-.04.15,0,.02-.02.05-.03.07-.01.02-.02.05-.03.07-.02.05-.04.09-.07.14-4.02,8.04-8.05,16.08-12.07,24.13-.01.02-.02.05-.03.07-.01.02-.03.05-.03.07,0,.02-.01.05,0,.08,0,.02.01.05.06.2Z"/>
  <path d="m193.71,35.77c-4.1,8.21-8.13,16.26-12.23,24.45.5-.14.75-.4,1.03-.6,2.8-2.12,5.46-4.39,7.95-6.86,1.65-1.64,3.25-3.33,4.87-5,.14-.15.24-.34.45-.67,1.02,1.96,1.93,3.71,2.88,5.53-7.52,7.91-16.1,14.4-25.83,19.49-.11-.26-.2-.46-.27-.67-.41-1.24-.79-2.49-1.23-3.72-.18-.49-.1-.88.12-1.33,3.12-6.21,6.23-12.43,9.34-18.65,1.88-3.76,3.78-7.52,5.64-11.29.26-.52.55-.71,1.13-.7,1.75.04,3.51.01,5.26.01.23,0,.46,0,.88,0Z"/>
  <path class="cls-4" d="m37.83,66.67c1.16-.77,2.26-1.48,3.33-2.23,2.95-2.06,5.38-4.62,7.46-7.55,2.27-3.2,4.27-6.57,6.02-10.09,1.63-3.28,5.2-10.36,5.34-10.64h6.91c-.05.19-5.25,10.76-7.94,15.83-1.95,3.67-4.32,7.1-7.06,10.24-1.67,1.91-3.57,3.6-5.57,5.17-2.05,1.62-6.44,4.91-6.64,5.03-.66-1.93-1.22-3.84-1.84-5.77Z"/>
  <path d="m317.21,34.22c-.11.28-.16.42-.23.55-2.43,4.84-4.83,9.69-7.29,14.51-2.95,5.78-6.87,10.86-11.48,15.42-.45.44-.85,1.02-1.39,1.24-.54.22-1.24.08-1.86.08-1.1,0-2.19,0-3.33,0-.35,1.49-.69,2.92-1.06,4.47-2.01-1.49-4.23-1.21-6.44-.99-.11-.28-.19-.49-.28-.73.43-.28.83-.53,1.22-.79,8.17-5.3,14.51-12.25,18.9-20.96,2.03-4.01,4.05-8.03,6.04-12.06.26-.53.54-.78,1.18-.76,1.73.05,5.64.02,6.01.02Z"/>
  <path d="m177.86,37.31h6.72c-.05.16-.06.29-.12.4-2.53,5.01-4.99,10.06-7.63,15.02-2.05,3.86-4.52,7.47-7.49,10.7-2.16,2.36-4.65,4.36-7.17,6.31-1.22.95-2.46,1.86-3.7,2.78-.1.07-.21.13-.41.24-.57-1.92-1.13-3.78-1.71-5.71.32-.2.62-.4.92-.59,3.34-2.08,6.31-4.57,8.66-7.74,2.34-3.16,4.41-6.48,6.18-9.99,1.79-3.54,3.56-7.1,5.33-10.65.13-.25.27-.5.41-.77Z"/>
  <path d="m279.57,50.04c-1.12,2.24-2.19,4.39-3.28,6.57-.46-.02-.9-.05-1.34-.07-1.23-.07-2.45-.19-3.68-.2-7.95-.02-15.91-.04-23.86,0-2.25.01-4.49.23-6.73.34-.18,0-.35,0-.64,0,1.11-2.21,2.18-4.35,3.28-6.54,6.04.34,12.08.18,18.11.17,6-.02,12.01.26,18.13-.29Z"/>
  <path d="m199.45,67.25c-.73-1.97-1.44-3.88-2.17-5.84,3.89-2.98,7.54-6.18,10.85-9.76,3.3-3.56,6.4-7.3,9.36-11.21,1.63,1.07,3.2,2.09,4.82,3.15-6.75,8.72-14.06,16.82-22.87,23.65Z"/>
  <path d="m231.09,39.25c.13,1.47.26,2.79.35,4.12.42,6.29-.46,12.45-1.9,18.55-.08.32-.19.55-.54.69-2.49.94-4.97,1.91-7.46,2.87-.04.02-.1,0-.25,0,.07-.29.12-.55.19-.82.94-3.7,1.76-7.41,2.34-11.19.47-3.11.7-6.23.57-9.37-.03-.61.13-.99.7-1.31,1.75-.99,3.46-2.05,5.19-3.09.22-.13.45-.25.82-.46Z"/>
  <path d="m297.3,34.51h6.78c-4.01,8.04-8,15.99-11.98,23.95h-6.61s-.04-.05-.05-.07c-.01-.02-.02-.05-.02-.07.02-.08.04-.15.07-.22,3.93-7.85,7.86-15.7,11.81-23.58Z"/>
  <path class="cls-4" d="m112.68,49.62c-1.04,2.01-2.07,3.99-3.1,5.99-8.1.2-16.18-.27-24.25.37.07-.6,2.11-4.84,3.17-6.6,0,0,24.12.25,24.18.25Z"/>
  <path class="cls-1" d="m47.94,53.15c-3.19,5.51-7.72,9.36-13.2,12.23.2.73.39,1.39.6,2.15-4.42-.38-8.52-1.62-12.62-3.24.23-.21.38-.34.53-.47,1.14-.95,2.29-1.9,3.43-2.86.31-.26.58-.42,1.04-.38.47.04.98-.11,1.44-.28,4.69-1.77,9.38-3.57,14.06-5.36,1.34-.51,2.69-1.02,4.03-1.53.19-.07.38-.14.69-.25Z"/>
  <path class="cls-1" d="m10.1,46.01h15.89c-3.93,4.45-8.21,8.27-12.98,11.54-2.75-2.82-3.76-7.79-2.91-11.54Z"/>
  <path d="m236.68,43.55c-.32-.06-.77-.1-1.19-.22-1.34-.39-2.09-1.54-1.92-2.93.24-1.85,1.09-3.42,2.27-4.82,1.37-1.61,3.09-2.63,5.22-2.89.46-.06.94-.05,1.4.04,1.59.29,2.54,1.51,2.47,3.12,0,.18-.01.37-.06.54-.94,3.47-2.95,5.94-6.52,6.94-.3.08-.62.11-.93.16-.21.03-.42.04-.75.08Zm1.82-4.81c.92-.19,1.33-.7,1.57-1.51-.86.18-1.24.72-1.57,1.51Z"/>
  <path d="m225.63,74.55c.11.08.15.12.19.15,1.63.89,1.88,2.64.57,3.97-.75.76-1.7,1.09-2.72,1.3-.26.05-.52.11-.78.11-2.25,0-4.49,0-6.85,0,.83-3.61,1.66-7.2,2.49-10.82.17-.02.29-.06.42-.06,1.78.03,3.56.02,5.33.12.77.05,1.55.26,2.27.54.82.31,1.38.93,1.44,1.88.07,1-.41,1.7-1.21,2.21-.35.22-.74.39-1.16.6Zm-6.29,3.81c1.21.01,2.33.13,3.42-.15.44-.11.9-.34,1.21-.65.79-.76.48-1.93-.55-2.1-1.13-.18-2.27-.08-3.4-.06-.23,1.02-.45,1.95-.68,2.95Zm1.08-4.5c1.07-.06,2.04-.07,2.99-.17.37-.04.74-.24,1.07-.45.47-.3.7-.76.59-1.34-.11-.56-.58-.77-1.04-.8-.98-.06-1.96-.02-2.99-.02-.18.73-.35,1.44-.51,2.15-.03.15-.05.3-.1.64Z"/>
  <path d="m334.37,79.36c-.15.25-.29.49-.43.73h-2.49c.89-3.84,1.76-7.62,2.63-11.41h2.77c-.34,1.34-.67,2.62-.98,3.86.75-.22,1.46-.53,2.18-.6.63-.07,1.32.03,1.92.24,1.11.38,1.7,1.27,1.84,2.42.12.95,0,1.88-.34,2.77-1.08,2.82-4.37,3.82-6.86,2.1-.06-.04-.14-.06-.23-.1Zm1.88-.8c.97-.02,1.68-.23,2.15-.91.61-.9.78-1.92.63-2.98-.09-.62-.47-.95-1.11-1.03-.61-.08-1.19.03-1.73.32-.42.22-.68.53-.78,1-.15.74-.35,1.47-.51,2.2-.15.66-.01.96.62,1.21.28.11.6.15.74.18Z"/>
  <path d="m281.64,72.03h2.47v.64c.09-.02.17-.02.22-.06,1.03-.69,2.16-.88,3.37-.64,1.39.28,2.3,1.27,2.45,2.69.13,1.15-.09,2.24-.64,3.25-1.24,2.28-4.04,3.06-6.28,1.77-.11-.06-.22-.12-.41-.23-.34,1.28-.66,2.51-.99,3.77h-2.77c.86-3.74,1.71-7.43,2.57-11.2Zm5.85,3.34c-.03-1.27-.66-1.87-1.91-1.73-.33.04-.66.14-.97.27-.46.19-.74.53-.84,1.04-.15.77-.36,1.53-.53,2.29-.14.62.01.93.58,1.16,1.24.51,2.7-.06,3.21-1.31.22-.55.32-1.15.47-1.72Z"/>
  <path d="m293.66,68.68h2.78c-.35,1.37-.68,2.68-1.05,4.13.3-.16.47-.24.64-.33.95-.53,1.95-.72,3.03-.52,1.59.29,2.42,1.4,2.15,2.99-.2,1.18-.5,2.35-.75,3.52-.12.53-.24,1.06-.37,1.63h-2.74c.1-.5.18-.95.28-1.41.26-1.17.53-2.34.78-3.52.23-1.05-.17-1.56-1.24-1.55-.38,0-.78.09-1.15.21-.55.18-.89.54-1.01,1.17-.31,1.51-.69,3-1.05,4.5-.05.2-.11.4-.17.61h-2.72c.83-3.84,1.74-7.6,2.61-11.43Z"/>
  <path d="m311.26,80.1h-2.68c-.08-.19-.16-.38-.26-.6-.12.05-.24.09-.34.16-1.12.65-2.32.8-3.55.44-.44-.13-.88-.35-1.24-.64-.94-.73-1.02-1.93-.24-2.83.48-.56,1.12-.85,1.8-1.06,1.16-.36,2.37-.44,3.57-.37.6.03.77-.06.85-.52.11-.62-.1-.99-.65-1.16-.88-.26-1.67.04-2.3.9h-2.65c-.05-.46.13-.82.42-1.08.34-.32.71-.63,1.13-.83,1.44-.69,2.97-.8,4.52-.46.47.1.94.32,1.36.58.84.52,1.17,1.3.97,2.29-.15.72-.31,1.43-.45,2.14-.2.99-.57,1.96-.23,3.04Zm-2.45-3.66c-.89-.04-1.67-.03-2.43.23-.43.14-.81.36-1.02.8-.25.52-.1.95.45,1.11.72.22,1.38.03,2.05-.27.59-.26.74-.76.84-1.31.03-.15.06-.3.11-.56Z"/>
  <path d="m269.98,80.1c-.08-.21-.14-.38-.21-.59-.11.04-.21.06-.29.11-1.11.68-2.29.84-3.54.52-.37-.1-.75-.25-1.07-.46-1.3-.83-1.38-2.37-.17-3.35.87-.7,1.91-.95,2.99-1.05.78-.07,1.56-.05,2.35-.07.13,0,.25-.03.44-.05.05-.27.13-.51.14-.76.02-.46-.19-.72-.65-.86-.77-.24-1.58,0-2.11.61-.11.13-.26.24-.41.3-.14.05-.31.02-.47.02-.65,0-1.3,0-1.99,0,0-.65.27-1.09.7-1.4.46-.33.97-.61,1.51-.81,1.2-.43,2.45-.48,3.71-.24.36.07.71.18,1.04.33,1.25.57,1.68,1.45,1.4,2.8-.15.72-.29,1.43-.46,2.14-.21.91-.47,1.82-.19,2.81h-2.69Zm.25-3.65c-.8-.07-1.52-.05-2.22.16-.34.1-.67.29-.96.51-.3.23-.44.59-.34.98.1.39.44.5.79.54.75.09,1.45-.08,2.08-.52.57-.4.47-1.05.65-1.68Z"/>
  <path d="m248.58,76.8c-.04.88.26,1.35,1.03,1.6,1.03.33,2.01.12,2.96-.32.21-.1.4-.23.66-.38.4.37.79.74,1.27,1.19-.41.28-.72.56-1.09.73-1.66.76-3.37.88-5.12.34-.22-.07-.44-.17-.65-.28-1.56-.8-2.22-2.2-1.84-3.92.44-1.97,2.15-3.54,4.22-3.79.77-.09,1.57-.11,2.34,0,2.11.31,3.26,1.98,2.88,4.07-.04.23-.11.45-.18.74h-6.49Zm4.03-1.54c.1-.89-.04-1.24-.55-1.48-.9-.42-2.8-.15-3.22,1.48h3.77Z"/>
  <path d="m242.16,72.05h2.75c-.57,2.72-1.22,5.36-1.84,8.05h-2.48c0-.2-.02-.4-.03-.65-.12.05-.22.08-.3.13-1.12.71-2.33.88-3.61.57-1.33-.32-2.06-1.28-1.92-2.64.09-.83.31-1.64.49-2.45.22-.99.45-1.98.68-3h2.76c-.18.84-.35,1.62-.53,2.41-.2.89-.41,1.78-.59,2.68-.2.99.19,1.44,1.2,1.41.36-.01.73-.07,1.08-.18.6-.19,1.02-.52,1.15-1.23.28-1.46.66-2.9,1-4.35.05-.23.12-.45.2-.74Z"/>
  <path class="cls-1" d="m51.07,23.15c-1.96,1.32-3.83,2.59-5.72,3.86-.28-.38-.05-.62.06-.85.94-2.04,1.9-4.07,2.85-6.1.53-1.14,1.06-2.27,1.59-3.41.11-.23.24-.44.43-.81,1.72,3.75,3.38,7.36,5.08,11.06-.82.33-1.59.63-2.47.98-.6-1.55-1.19-3.07-1.83-4.72Z"/>
  <path class="cls-1" d="m44.57,49.81c-3.4,1.3-6.73,2.57-10.02,3.83-.09-.06-.12-.07-.12-.09,0-.02,0-.06,0-.08.13-.16,5.08-6.03,7.49-8.87.88,1.67,1.73,3.41,2.65,5.21Z"/>
  <path d="m323.6,68.67h2.79c-.89,3.84-1.76,7.62-2.63,11.43h-2.8c.89-3.83,1.76-7.62,2.64-11.43Z"/>
  <path d="m277.26,68.67h2.79c-.88,3.84-1.75,7.61-2.63,11.42h-2.8c.88-3.82,1.76-7.6,2.64-11.42Z"/>
  <path d="m231.61,80.11h-2.78c.85-3.85,1.75-7.63,2.64-11.44h2.78c-.88,3.84-1.75,7.61-2.63,11.44Z"/>
  <path d="m329.01,80.11h-2.74c.63-2.72,1.25-5.39,1.86-8.06h2.65c.05.59-1.29,6.66-1.77,8.06Z"/>
  <path d="m319.36,76.31h-5.42c.06-.31.1-.58.16-.85.06-.25.13-.5.2-.8h5.4c-.11.54-.22,1.05-.35,1.64Z"/>
  <path d="m257.17,74.64h5.44c-.13.58-.25,1.12-.37,1.67h-5.41c.12-.57.22-1.08.34-1.67Z"/>
  <path d="m346.36,79.11c-.16.25-.27.52-.47.71-.58.54-1.69.56-2.31.07-.51-.41-.55-1.03-.09-1.49.63-.62,1.89-.64,2.49,0,.17.18.24.44.39.71Z"/>
  <path d="m329.98,68.7c.42.15.81.23,1.12.43.6.38.61,1.04.08,1.5-.58.51-1.73.52-2.33.02-.51-.42-.54-1.08,0-1.46.32-.23.74-.33,1.12-.5Z"/>
</svg>